<?xml version="1.0" standalone="no"?>
<!DOCTYPE svg PUBLIC "-//W3C//DTD SVG 20010904//EN"
 "http://www.w3.org/TR/2001/REC-SVG-20010904/DTD/svg10.dtd">
<svg version="1.0" xmlns="http://www.w3.org/2000/svg"
 width="200.000000pt" height="200.000000pt" viewBox="0 0 200.000000 200.000000"
 preserveAspectRatio="xMidYMid meet">

<g transform="translate(0.000000,200.000000) scale(0.100000,-0.100000)"
fill="#000000" stroke="none">
<path d="M927 1964 c-1 -1 -29 -4 -62 -7 -108 -11 -164 -26 -260 -71 -123 -58
-202 -112 -295 -200 -86 -82 -129 -137 -172 -220 -95 -187 -130 -380 -104
-581 8 -63 43 -181 51 -173 2 2 -7 48 -20 103 -24 97 -28 139 -18 179 7 25 22
-15 69 -184 68 -242 233 -509 349 -564 17 -8 48 -28 68 -44 20 -16 67 -42 103
-58 51 -21 62 -30 48 -35 -15 -5 -9 -9 26 -20 25 -7 55 -19 67 -27 14 -9 35
-11 60 -7 28 5 34 4 23 -4 -17 -12 1 -13 146 -13 173 0 268 19 387 75 129 62
198 108 297 200 120 113 187 216 226 348 9 30 20 59 24 64 4 6 16 57 25 114
18 103 17 150 -4 301 -8 58 -39 156 -46 148 -2 -2 7 -48 21 -103 24 -102 29
-150 18 -180 -9 -21 -24 19 -64 165 -38 139 -50 171 -99 265 -104 198 -232
325 -416 414 -58 28 -75 40 -60 43 14 3 8 8 -24 17 -24 7 -54 19 -67 27 -15
11 -35 13 -61 9 -28 -5 -34 -4 -23 4 12 8 6 11 -25 11 -22 0 -73 2 -113 3 -41
1 -74 1 -75 1z m250 -40 c-3 -3 -12 -4 -19 -1 -8 3 -5 6 6 6 11 1 17 -2 13 -5z
m50 -10 c-3 -3 -12 -4 -19 -1 -8 3 -5 6 6 6 11 1 17 -2 13 -5z m-2 -69 c33 -8
98 -34 143 -57 180 -89 400 -353 403 -482 1 -38 27 -111 29 -81 1 14 5 10 15
-15 l14 -35 -6 50 c-6 59 -28 135 -55 188 -11 22 -17 41 -14 44 6 6 48 -75 77
-149 49 -124 60 -357 25 -513 -38 -165 -99 -278 -220 -403 -167 -173 -383
-263 -634 -263 -126 0 -126 0 -238 31 -153 42 -301 142 -402 273 -57 75 -132
219 -132 255 0 15 -7 47 -14 72 -11 34 -15 39 -16 20 -1 -23 -2 -24 -11 -5
-24 52 2 -87 30 -154 36 -87 34 -105 -3 -32 -95 186 -119 421 -67 636 74 302
312 539 623 621 127 33 322 33 453 -1z m-435 -1755 c20 -6 21 -8 5 -8 -11 0
-29 3 -40 8 -25 11 1 11 35 0z m57 -16 c-3 -3 -12 -4 -19 -1 -8 3 -5 6 6 6 11
1 17 -2 13 -5z"/>
<path d="M944 1341 c-60 -37 -105 -116 -140 -246 l-21 -80 -79 -5 c-43 -3 -80
-5 -81 -5 -2 1 2 40 8 87 15 111 6 170 -30 211 -25 27 -35 31 -78 30 -95 -1
-213 -93 -213 -165 0 -47 28 -47 67 1 56 67 122 91 143 52 13 -25 13 -52 -1
-146 -11 -73 -12 -75 -40 -75 -15 0 -39 -4 -53 -10 -54 -20 -20 -101 36 -87
23 7 23 -3 -8 -145 -20 -95 -14 -118 32 -118 42 0 61 32 89 155 15 64 32 118
39 120 6 2 45 6 86 9 l75 6 2 -66 c2 -83 25 -145 68 -183 67 -58 163 -48 243
26 l32 31 0 -34 c0 -42 16 -51 111 -59 195 -18 351 61 422 213 26 56 32 82 35
157 5 107 -7 159 -51 217 -65 86 -194 126 -338 106 -74 -10 -174 -42 -184 -59
-10 -15 -25 -10 -25 7 0 8 -13 29 -29 45 -35 34 -72 37 -117 10z m74 -102 c5
-65 -13 -112 -58 -153 -68 -61 -73 -49 -35 72 26 82 59 136 79 129 6 -2 12
-23 14 -48z m447 -8 c51 -23 92 -71 101 -117 13 -69 -1 -179 -30 -238 -44 -90
-102 -127 -221 -141 -77 -9 -81 -2 -67 102 7 48 24 137 38 196 14 59 23 114
20 122 -3 10 -19 15 -45 15 -31 0 -44 -5 -55 -22 -13 -20 -52 -183 -71 -291
-3 -21 -10 -35 -16 -31 -5 3 -30 -13 -54 -35 -68 -63 -131 -68 -160 -11 -19
37 -21 190 -2 190 47 0 177 131 177 179 0 16 60 48 155 82 67 25 177 25 230 0z"/>
<path d="M171 814 c0 -11 3 -14 6 -6 3 7 2 16 -1 19 -3 4 -6 -2 -5 -13z"/>
</g>
</svg>
