<svg width="271" height="113" viewBox="0 0 271 113" fill="none" xmlns="http://www.w3.org/2000/svg">
<g filter="url(#filter0_d)">
<path d="M50.6301 39.1581C51.6116 41.1586 52.1022 43.3855 52.1022 45.839C52.1022 48.2924 51.6116 50.5193 50.6301 52.5198C49.6487 54.4825 48.3844 56.049 46.8368 57.2191C43.7039 59.6348 40.4579 60.8426 37.0985 60.8426H30.0213V67.2404C30.0213 68.1086 29.9836 68.7691 29.9081 69.222C29.8703 69.6373 29.7005 70.1279 29.3985 70.6941C28.8701 71.7132 27.398 72.2228 24.9824 72.2228C22.3402 72.2228 20.7926 71.5245 20.3397 70.1279C20.1132 69.4862 20 68.5049 20 67.1838V35.761C20 34.8929 20.0189 34.2512 20.0566 33.836C20.1321 33.3831 20.3208 32.8735 20.6228 32.3073C21.1512 31.2882 22.6233 30.7787 25.039 30.7787H37.1551C40.4767 30.7787 43.7039 31.9865 46.8368 34.4022C48.3844 35.5723 49.6487 37.1576 50.6301 39.1581ZM37.1551 50.8213C38.2875 50.8213 39.4009 50.4061 40.4956 49.5757C41.5902 48.7454 42.1375 47.4998 42.1375 45.839C42.1375 44.1781 41.5902 42.9325 40.4956 42.1022C39.4009 41.234 38.2686 40.8 37.0985 40.8H30.0213V50.8213H37.1551ZM87.5356 65.2588C88.1017 66.6176 88.3848 67.599 88.3848 68.2029C88.3848 69.6373 87.2148 70.845 84.8745 71.8265C83.6667 72.3549 82.6854 72.6191 81.9304 72.6191C81.2133 72.6191 80.6093 72.4492 80.1187 72.1095C79.6657 71.7321 79.326 71.3546 79.0995 70.9772C78.7221 70.2601 77.2501 66.8441 74.6834 60.7294L72.9282 60.8426H65.7944V67.2404C65.7944 68.1086 65.7567 68.7691 65.6812 69.222C65.6434 69.6373 65.4736 70.1279 65.1716 70.6941C64.6431 71.7132 63.1711 72.2228 60.7554 72.2228C58.1133 72.2228 56.5657 71.5245 56.1128 70.1279C55.8863 69.4862 55.7731 68.5049 55.7731 67.1838V35.761C55.7731 34.8929 55.792 34.2512 55.8297 33.836C55.9052 33.3831 56.0939 32.8735 56.3959 32.3073C56.9243 31.2882 58.3964 30.7787 60.812 30.7787H73.0415C76.363 30.7787 79.5902 31.9865 82.7231 34.4022C84.2328 35.5723 85.4784 37.1576 86.4598 39.1581C87.4412 41.1586 87.9319 43.3855 87.9319 45.839C87.9319 50.1042 86.5164 53.6145 83.6856 56.3698C84.5159 58.3704 85.7993 61.3333 87.5356 65.2588ZM65.7944 50.8213H73.0415C74.1361 50.8213 75.2306 50.4061 76.3253 49.5757C77.4199 48.7454 77.9672 47.4998 77.9672 45.839C77.9672 44.1781 77.4199 42.9325 76.3253 42.1022C75.2306 41.234 74.0983 40.8 72.9282 40.8H65.7944V50.8213ZM110.414 30.2691C116.001 30.2691 120.851 32.2885 124.965 36.3272C129.079 40.3659 131.136 45.386 131.136 51.3875C131.136 57.3512 129.174 62.4468 125.248 66.6742C121.323 70.864 116.491 72.9588 110.754 72.9588C105.017 72.9588 100.129 70.8829 96.0902 66.7309C92.0892 62.5789 90.0887 57.6343 90.0887 51.897C90.0887 48.7642 90.6549 45.839 91.7872 43.1213C92.9196 40.3659 94.4293 38.0635 96.3166 36.214C98.2039 34.3644 100.374 32.9113 102.828 31.8544C105.281 30.7975 107.81 30.2691 110.414 30.2691ZM100.11 51.614C100.11 54.9733 101.186 57.7098 103.337 59.8235C105.526 61.8995 107.961 62.9375 110.641 62.9375C113.321 62.9375 115.736 61.9184 117.888 59.8801C120.039 57.8419 121.115 55.1053 121.115 51.6706C121.115 48.2358 120.021 45.4803 117.831 43.4044C115.68 41.3285 113.264 40.2904 110.584 40.2904C107.904 40.2904 105.489 41.3473 103.337 43.461C101.186 45.537 100.11 48.2546 100.11 51.614Z" fill="#1C1A1A"/>
<path d="M230.782 63.9H246.182C247.427 63.9 248.333 64.0509 248.899 64.3529C249.466 64.6171 249.843 65.0513 250.032 65.6552C250.221 66.259 250.315 67.0706 250.315 68.0897C250.315 69.0711 250.221 69.8638 250.032 70.4677C249.843 71.0715 249.522 71.4868 249.069 71.7132C248.352 72.0907 247.371 72.2794 246.125 72.2794H225.743C223.101 72.2794 221.553 71.5623 221.1 70.1279C220.874 69.5241 220.76 68.5616 220.76 67.2404V35.761C220.76 34.8929 220.78 34.2512 220.817 33.836C220.893 33.3831 221.081 32.8735 221.383 32.3074C221.912 31.2882 223.384 30.7787 225.799 30.7787C228.441 30.7787 230.008 31.477 230.499 32.8735C230.688 33.5152 230.782 34.4966 230.782 35.8177V63.9Z" fill="#FFE600"/>
<path d="M110.835 73.8656C110.835 73.8656 126.316 101.326 141.281 73.8656" stroke="black" stroke-dasharray="4 4"/>
<rect width="12.195" height="45.1827" rx="6.09748" transform="matrix(0.943091 0.332534 -0.318714 0.947851 151.326 28.1177)" fill="#FFE600"/>
<rect width="10.152" height="29.9761" rx="5.07601" transform="matrix(0.398727 0.91707 -0.909893 0.414843 158.539 26.9854)" fill="#FFE600"/>
<rect width="10.0088" height="30.4065" rx="5.0044" transform="matrix(0.869664 -0.493644 0.476037 0.879425 150.514 31.9261)" fill="#FFE600"/>
<path d="M159.573 27.5424C159.573 27.5424 181.121 -10.9576 194.943 27.5424" stroke="black" stroke-dasharray="4 4"/>
<path d="M193.454 25.6427C194.245 23.4316 197.372 23.4316 198.162 25.6427L202.948 39.0265C203.303 40.0211 204.246 40.6849 205.302 40.6849H218.048C220.42 40.6849 221.459 43.6777 219.597 45.1471L209.729 52.9376C208.887 53.6026 208.563 54.731 208.924 55.7415L213.529 68.6187C214.337 70.8805 211.802 72.8702 209.797 71.5467L197.186 63.2203C196.35 62.6687 195.266 62.6687 194.431 63.2203L181.82 71.5467C179.815 72.8702 177.279 70.8805 178.088 68.6187L182.692 55.7415C183.054 54.731 182.73 53.6026 181.887 52.9376L172.019 45.1471C170.158 43.6777 171.197 40.6849 173.568 40.6849H186.315C187.371 40.6849 188.313 40.0211 188.669 39.0265L193.454 25.6427Z" fill="#FFE600"/>
</g>
<defs>
<filter id="filter0_d" x="0" y="-4.06873" width="271" height="116.511" filterUnits="userSpaceOnUse" color-interpolation-filters="sRGB">
<feFlood flood-opacity="0" result="BackgroundImageFix"/>
<feColorMatrix in="SourceAlpha" type="matrix" values="0 0 0 0 0 0 0 0 0 0 0 0 0 0 0 0 0 0 127 0"/>
<feOffset dy="6"/>
<feGaussianBlur stdDeviation="10"/>
<feColorMatrix type="matrix" values="0 0 0 0 0 0 0 0 0 0 0 0 0 0 0 0 0 0 0.45 0"/>
<feBlend mode="normal" in2="BackgroundImageFix" result="effect1_dropShadow"/>
<feBlend mode="normal" in="SourceGraphic" in2="effect1_dropShadow" result="shape"/>
</filter>
</defs>
</svg>
